<svg id="Layer_1" data-name="Layer 1" xmlns="http://www.w3.org/2000/svg" viewBox="0 0 142.82 73.33">
<defs>
<style>
    .cls-1{ fill:#ef4351; }
    .cls-2{ font-size:24px; fill:#ef4351; font-family:AlexBrush-Regular, Alex Brush; }
</style>
</defs>
<path class="cls-1" d="M85,19.27a19.07,19.07,0,0,0-20.41,0c-3,2.07-4.64,4.91-4.64,8s1.65,5.9,4.64,8a19.07,19.07,0,0,0,20.41,0c3-2.07,4.63-4.9,4.63-8S88,21.34,85,19.27ZM74.75,34C69,34,64.12,30.89,64.12,27.25S69,20.52,74.75,20.52s10.64,3.08,10.64,6.73S80.52,34,74.75,34Z" transform="translate(-32.03 1.63)"/>
<path class="cls-1" d="M80.4,6.2A21.8,21.8,0,0,0,67.63,6c-4,1.28-7.4,3.74-11.37,5a34.44,34.44,0,0,1-5.58,1.28c-4.24.6-9.1.5-12.77-2C34.39,7.91,32,2.48,33.7-1.63c-2,4.62-2.78,10.47.88,14.5C41,19.93,52.23,18.22,59.9,14.53c3.81-1.84,7.57-3.92,11.77-4.68,7.65-1.4,19.75.25,23.34,8.4C92.26,12,86.81,8.07,80.4,6.2Z" transform="translate(-32.03 1.63)"/>
<path class="cls-1" d="M52,36.09c-1.39-6.09.25-15.75,8.4-18.61a19.18,19.18,0,0,0-12,11.65,14,14,0,0,0-.22,10.18c1.28,3.16,3.74,5.91,5,9.07a22.14,22.14,0,0,1,1.29,4.45c.6,3.38.5,7.26-2,10.18s-7.81,4.75-11.93,3.36C45.12,67.93,51,68.59,55,65.67c7.06-5.1,5.35-14.07,1.65-20.19C54.82,42.44,52.74,39.44,52,36.09Z" transform="translate(-32.03 1.63)"/>
<text class="cls-2" transform="translate(39.12 63.13)">
    Pull it Off
</text>
</svg>